# xmcd
#
# Track frame offsets:
#	150
#	14537
#	29768
#	40580
#	61478
#	75939
#	94973
#	113875
#	134297
#	147999
#	166408
#	180007
#	199327
#
# Disc length: 2893 seconds
#
# Revision: 0
# Processed by: cddbd v1.5.2PL0 Copyright (c) Steve Scherf et al.
# Submitted via: EasyCDDAExtractor 15.3.0.1
#
DISCID=ab0b4b0d
DTITLE=Dan Sultan - Blackbird
DYEAR=2014
DGENRE=
TTITLE0=Make Me Slip
TTITLE1=Can't Blame Me
TTITLE2=Under your Skin
TTITLE3=High Street Riot
TTITLE4=Ain't Thinking About You
TTITLE5=Kimberley Calling
TTITLE6=The Same Man
TTITLE7=Nobody Knows
TTITLE8=Waiting On The End Of The Phone
TTITLE9=It Belongs To Us
TTITLE10=No More Explanations
TTITLE11=Loving's Just For Fools
TTITLE12=Gullible Few
EXTD=
EXTT0=
EXTT1=
EXTT2=
EXTT3=
EXTT4=
EXTT5=
EXTT6=
EXTT7=
EXTT8=
EXTT9=
EXTT10=
EXTT11=
EXTT12=
PLAYORDER=
